<svg width="70" height="59" viewBox="0 0 70 59" fill="none" xmlns="http://www.w3.org/2000/svg">
<path d="M44.21 54.727C42.6755 57.086 40.0897 58.4929 37.3191 58.4929H27.1745C25.1712 58.4929 23.4094 57.0434 23.0968 55.1249L21.9886 40.2174C21.8749 39.5069 20.8946 39.3221 20.5394 39.9474L16.7032 45.5182C15.7228 46.9251 14.1173 47.792 12.3982 47.792H6.4734C4.75423 47.792 3.26238 46.4561 3.10609 44.7792L0.00873307 13.1311C-0.104931 11.7952 0.903841 10.701 2.28202 10.701H6.58707C7.92262 10.701 9.01664 11.6815 9.21556 12.9747L10.6222 23.4768C10.6648 23.9457 11.361 24.102 11.6025 23.6757L22.4149 2.8138C23.3668 1.09426 25.1996 0 27.2456 0H33.3977C35.0458 0 36.3814 1.25058 36.495 2.89907L37.9869 22.8088C37.9869 23.3204 38.6547 23.5194 38.9246 23.1215L43.6275 14.7369C45.0057 12.2642 47.6199 10.7436 50.49 10.7436H65.7779C68.79 10.7436 70.637 14.1116 68.9889 16.627L44.21 54.727Z" fill="white"/>
</svg>
