<svg width="350" height="59" viewBox="0 0 350 59" fill="none" xmlns="http://www.w3.org/2000/svg">
<path fill-rule="evenodd" clip-rule="evenodd" d="M243.512 10.8251C256.289 11.0068 260.986 16.8793 259.641 24.4843L259.392 25.9003C258.05 33.6011 249.679 39.538 237.829 39.538C226.165 39.5379 221 34.9165 220.889 28.5165L220.888 28.2099C220.806 28.303 220.721 28.3949 220.635 28.4853C217.966 31.2889 213.445 32.7811 206.033 32.7812H201.213C201.083 32.7812 200.953 32.8652 200.885 32.9804C200.874 32.9995 200.864 33.0194 200.857 33.04C200.849 33.0608 200.843 33.0825 200.84 33.1044L200.071 37.4511C199.946 38.2211 199.276 38.7927 198.481 38.7929H186.979L186.892 38.788C186.465 38.74 186.164 38.3409 186.234 37.8984L190.506 13.7275C190.73 12.4855 191.798 11.5664 193.065 11.5663H209.784C210.083 11.5663 210.377 11.5692 210.665 11.5742C219.324 11.722 223.046 14.0808 223.736 18.1806C223.759 18.3173 223.778 18.456 223.794 18.5966C223.896 18.4516 224 18.308 224.108 18.1659C227.336 13.901 233.236 11.012 242.01 10.83C242.303 10.8239 242.599 10.8212 242.898 10.8212L243.512 10.8251ZM240.706 21.6318C237.878 21.7168 236.329 23.1053 235.992 25.0302L235.942 25.329C235.594 27.3162 236.712 28.7324 239.743 28.7324C239.837 28.7324 239.931 28.7302 240.023 28.7275C242.876 28.6425 244.448 27.2541 244.785 25.329L244.835 25.0302C245.172 23.1052 244.063 21.7167 241.261 21.6318C241.171 21.629 241.079 21.6269 240.985 21.6269C240.891 21.6269 240.798 21.629 240.706 21.6318ZM203.3 20.957C203.102 20.957 202.928 21.0807 202.903 21.2792L202.53 23.3915C202.486 23.6305 202.652 23.8501 202.877 23.9013L202.977 23.913H207.026C208.539 23.913 209.202 23.4325 209.422 22.5947V22.5927L209.436 22.4472C209.61 21.5032 209.162 20.957 207.547 20.957H203.3Z" fill="white"/>
<path d="M276.111 11.5663C276.93 11.5663 277.552 12.312 277.403 13.1318L276.334 19.1435C276.284 19.4165 276.086 19.6399 275.837 19.7392L269.453 22.0243C269.031 22.1734 269.13 22.7949 269.577 22.7949H274.819L274.906 22.7997C275.333 22.8477 275.635 23.2468 275.565 23.6894L273.005 38.1718C272.956 38.5196 272.633 38.7929 272.26 38.7929H259.218L259.131 38.788C258.704 38.7397 258.403 38.3408 258.473 37.8984L262.994 12.1874C263.044 11.8397 263.367 11.5664 263.74 11.5663H276.111Z" fill="white"/>
<path d="M293.401 11.5419C293.848 11.5419 294.245 11.7897 294.444 12.162L299.686 21.6269C299.86 21.9498 300.357 21.8755 300.407 21.5029L300.62 20.3007L301.822 13.4296C301.92 12.8279 302.262 12.3125 302.738 11.9775C303.109 11.7029 303.566 11.5419 304.058 11.5419H349.22L349.196 11.5663C349.353 11.5664 349.495 11.6113 349.614 11.6874C349.881 11.8384 350.044 12.149 349.991 12.4853L348.301 21.9999C348.251 22.3476 347.928 22.6209 347.556 22.621H338.886C338.513 22.621 338.215 22.8695 338.141 23.2421L335.507 38.1718C335.457 38.5196 335.135 38.7929 334.762 38.7929H321.77C321.357 38.7929 321.039 38.4694 321.016 38.0722V37.9618C321.017 37.9328 321.02 37.9035 321.025 37.874L323.559 23.4658C323.567 23.4153 323.569 23.3652 323.568 23.3163C323.545 22.9193 323.226 22.5956 322.813 22.5956H313.573L310.964 37.3769C310.815 38.1718 310.119 38.7685 309.299 38.7685H297.549C297.4 38.7685 297.276 38.6935 297.201 38.5693L291.066 28.0117C290.892 27.6887 290.42 27.7879 290.345 28.1357L288.532 38.4452C288.507 38.6437 288.358 38.7683 288.16 38.7685H275.589C275.388 38.7685 275.208 38.6064 275.21 38.3925C275.209 38.3608 275.209 38.3283 275.216 38.2958L279.688 12.9325C279.837 12.1376 280.533 11.5419 281.353 11.5419H293.401Z" fill="white"/>
<path fill-rule="evenodd" clip-rule="evenodd" d="M93.0765 11.4667C93.5485 11.4667 93.9463 11.815 94.0208 12.287L95.8343 25.204C95.853 25.3067 95.9172 25.3784 95.9954 25.414C96.0473 25.4376 96.1055 25.4453 96.1605 25.4365C96.243 25.4232 96.3185 25.3721 96.3558 25.2792L101.523 13.0566C101.92 12.1126 102.84 11.4921 103.883 11.4921H116.677C117.969 11.4924 119.062 12.4359 119.236 13.7275L120.826 25.0302C120.844 25.1325 120.908 25.2035 120.986 25.2392C121.038 25.2632 121.096 25.2716 121.152 25.2626C121.234 25.2493 121.31 25.1982 121.347 25.1054L126.34 13.3056C126.787 12.2126 127.856 11.5165 129.048 11.5165H146.909C148.275 11.5165 149.418 12.6098 149.493 14.0009L150.114 27.1913C150.138 27.3155 150.238 27.4404 150.387 27.4404H152.175C152.274 27.4404 152.399 27.3654 152.399 27.2411L154.809 13.6777C155.033 12.4357 156.101 11.5165 157.368 11.5165H175.8L175.775 11.5419C186.407 11.5419 189.463 15.1682 188.643 19.8632C188.221 22.2232 186.929 23.9374 185.24 25.1298C183.526 26.3222 181.414 26.9934 179.352 27.3163C183.801 27.7151 185.644 29.0887 185.629 32.247C185.629 32.8323 185.564 33.4806 185.439 34.1972L185.24 35.3896C185.117 36.0756 185.056 36.6166 185.06 37.0693C185.067 37.5229 185.141 37.8877 185.289 38.2216C185.321 38.2849 185.331 38.3495 185.325 38.4111C185.32 38.6019 185.155 38.7675 184.942 38.7675H171.353C170.732 38.7672 170.112 38.1224 170.012 37.7001C169.99 37.6165 169.97 37.5356 169.952 37.457C169.815 37.1157 169.768 36.731 169.838 36.3339L170.008 35.3896C170.01 35.3814 170.011 35.3725 170.012 35.3642L170.509 32.6074C170.758 31.266 170.409 30.8437 169.217 30.8437H165.714L165.651 30.8495C165.505 30.8756 165.388 30.9893 165.367 31.1415L164.248 37.4267C164.124 38.1967 163.453 38.7675 162.659 38.7675H139.332L139.162 38.7597C138.323 38.6746 137.668 37.9653 137.668 37.1034V35.8593C137.668 35.8481 137.664 35.838 137.661 35.8281C137.638 35.7847 137.615 35.7617 137.569 35.7617H129.992C129.772 35.7617 129.566 35.8567 129.423 36.0156C129.383 36.0662 129.349 36.1229 129.321 36.1845L128.526 38.0722C128.5 38.1314 128.468 38.187 128.434 38.2402C128.252 38.5587 127.898 38.7675 127.507 38.7675H112.106C111.634 38.7675 111.236 38.4202 111.161 37.9482L110.616 34.123C110.566 33.7504 110.516 33.4019 110.466 33.0292L109.298 24.9062C109.199 24.7574 108.951 24.7824 108.802 25.0058L108.653 25.3779L103.238 38.1718C103.089 38.5196 102.74 38.7431 102.368 38.7431H86.3948C85.923 38.7431 85.5252 38.3956 85.4505 37.9238L81.8978 12.5849C81.8233 12.0135 82.2708 11.5164 82.8421 11.4667H93.0765ZM137.668 19.8886C137.668 19.3107 136.986 19.0834 136.622 19.4286C136.575 19.4798 136.533 19.5416 136.5 19.6152L133.47 26.7197C133.443 26.7781 133.429 26.8382 133.426 26.8974C133.428 27.1556 133.64 27.3903 133.916 27.3906H137.221C137.469 27.3904 137.668 27.1916 137.668 26.9433V19.8886ZM167.453 20.832C167.304 20.832 167.179 20.9319 167.155 21.081L166.757 23.3417C166.714 23.5153 166.842 23.6885 167.007 23.7294L167.08 23.7392H171.676C173.34 23.7392 174.011 23.1675 174.16 22.2734H174.185C174.203 22.1625 174.212 22.0571 174.211 21.9579C174.2 21.2295 173.672 20.832 172.198 20.832H167.453Z" fill="white"/>
<path d="M44.21 54.727C42.6755 57.086 40.0897 58.4929 37.3191 58.4929H27.1745C25.1712 58.4929 23.4094 57.0434 23.0968 55.1249L21.9886 40.2175C21.8749 39.5069 20.8946 39.3222 20.5394 39.9474L16.7032 45.5182C15.7228 46.9251 14.1173 47.792 12.3982 47.792H6.4734C4.75423 47.792 3.26238 46.4561 3.10609 44.7792L0.00873307 13.1311C-0.104931 11.7952 0.903841 10.701 2.28202 10.701H6.58707C7.92262 10.701 9.01664 11.6815 9.21556 12.9748L10.6222 23.4768C10.6648 23.9457 11.361 24.1021 11.6025 23.6757L22.4149 2.81381C23.3668 1.09427 25.1996 1.52588e-05 27.2456 1.52588e-05H33.3977C35.0458 1.52588e-05 36.3814 1.25059 36.495 2.89908L37.9869 22.8088C37.9869 23.3204 38.6547 23.5194 38.9246 23.1215L43.6275 14.7369C45.0057 12.2642 47.6199 10.7436 50.49 10.7436H65.7779C68.79 10.7436 70.637 14.1116 68.9889 16.627L44.21 54.727Z" fill="white"/>
</svg>
